<?xml version="1.0" encoding="UTF-8"?>
<svg version="1.1" xmlns="http://www.w3.org/2000/svg" width="460" height="460">
<path d="M0 0 C151.8 0 303.6 0 460 0 C460 151.8 460 303.6 460 460 C308.2 460 156.4 460 0 460 C0 308.2 0 156.4 0 0 Z " fill="#FBFCFB" transform="translate(0,0)"/>
<path d="M0 0 C0.72822464 0.00141495 1.45644928 0.0028299 2.20674133 0.00428772 C4.52979664 0.00987966 6.85275513 0.02243063 9.17578125 0.03515625 C10.75195173 0.04017229 12.32812373 0.04473502 13.90429688 0.04882812 C17.76566223 0.05984645 21.62695533 0.07710551 25.48828125 0.09765625 C26.16762232 1.31986362 26.83119648 2.55084076 27.48828125 3.78515625 C27.85953125 4.46964844 28.23078125 5.15414062 28.61328125 5.859375 C29.48828125 8.09765625 29.48828125 8.09765625 29.48828125 13.09765625 C17.93828125 13.09765625 6.38828125 13.09765625 -5.51171875 13.09765625 C-5.78867451 19.90155211 -5.78867451 19.90155211 -3.90234375 25.46484375 C-3.56195068 26.19977051 -3.22155762 26.93469727 -2.87084961 27.69189453 C-2.50483643 28.4445459 -2.13882324 29.19719727 -1.76171875 29.97265625 C-1.01694971 31.57101903 -0.27344664 33.16997235 0.46875 34.76953125 C0.82372559 35.52427734 1.17870117 36.27902344 1.54443359 37.05664062 C2.63463016 39.41412724 3.61542787 41.79980257 4.55078125 44.22265625 C6.47264089 49.15853366 8.62582929 53.98812093 10.76831055 58.83081055 C13.18738997 64.33214989 15.44582733 69.88760522 17.62255859 75.48901367 C18.66962168 78.52465161 18.66962168 78.52465161 20.48828125 81.09765625 C20.74480469 80.57558594 21.00132813 80.05351562 21.265625 79.515625 C28.81318201 65.00500193 38.17211494 56.84049006 53.27734375 51.078125 C69.16048211 46.22816426 87.90058416 48.37773825 102.55078125 55.97265625 C112.60715103 62.00647812 120.70327532 70.08816105 124.98828125 81.16015625 C126.40167456 84.91459741 126.40167456 84.91459741 129.5703125 87.01171875 C132.03754127 87.37905519 132.03754127 87.37905519 135.48828125 87.09765625 C135.64296875 86.07671875 135.64296875 86.07671875 135.80078125 85.03515625 C138.58479233 73.13983617 147.49110195 63.10288386 157.72265625 56.69921875 C172.51998946 48.72026457 189.88364039 46.07663059 206.18383789 50.69213867 C212.18120405 52.60573679 218.11061092 54.80520503 223.48828125 58.09765625 C223.81828125 59.08765625 224.14828125 60.07765625 224.48828125 61.09765625 C225.35453125 61.53078125 225.35453125 61.53078125 226.23828125 61.97265625 C232.63772179 65.17237652 236.41620568 71.86904943 239.48828125 78.09765625 C239.48828125 79.08765625 239.48828125 80.07765625 239.48828125 81.09765625 C240.14828125 81.09765625 240.80828125 81.09765625 241.48828125 81.09765625 C241.6584375 80.55238281 241.82859375 80.00710937 242.00390625 79.4453125 C244.25105967 72.45284043 246.86767471 65.74566173 250.61328125 59.41015625 C252.37787328 56.29271033 253.38040629 53.48645025 254.48828125 50.09765625 C255.22760418 48.26143797 255.98721558 46.43327431 256.765625 44.61328125 C257.19681641 43.59492188 257.62800781 42.5765625 258.07226562 41.52734375 C258.96837982 39.42218659 259.86678591 37.31800344 260.76757812 35.21484375 C265.48903061 25.00314202 265.48903061 25.00314202 267.48828125 14.09765625 C255.93828125 14.09765625 244.38828125 14.09765625 232.48828125 14.09765625 C233.33723349 8.15499059 234.08866984 5.20987186 236.48828125 0.09765625 C240.77494861 0.02302897 245.06126332 -0.03116883 249.34838867 -0.06713867 C250.80418493 -0.08214688 252.25993657 -0.10256008 253.71557617 -0.12866211 C255.81830914 -0.16540051 257.9204401 -0.18214935 260.0234375 -0.1953125 C261.28551025 -0.21102295 262.54758301 -0.2267334 263.84790039 -0.24291992 C271.20767217 0.44562422 275.71388071 3.64119849 280.48828125 9.09765625 C282.87976646 16.27211187 281.61280584 23.66843538 278.3828125 30.40234375 C277.51828794 32.11011226 276.64691152 33.81442546 275.76953125 35.515625 C274.1981228 38.6823963 272.9256484 41.91707782 271.6484375 45.2109375 C270.19963695 48.81586547 268.62581581 52.35898617 267.05078125 55.91015625 C264.37765362 61.94854791 261.91487659 68.03259141 259.62890625 74.23046875 C258.41402796 77.28430665 256.99550345 80.17849601 255.48828125 83.09765625 C256.5246875 83.05125 257.56109375 83.00484375 258.62890625 82.95703125 C259.99866904 82.9195035 261.36846307 82.88310441 262.73828125 82.84765625 C263.42019531 82.81414062 264.10210937 82.780625 264.8046875 82.74609375 C268.26455353 82.67891189 270.12730697 82.82879662 272.9375 84.921875 C274.48828125 87.09765625 274.48828125 87.09765625 275.05078125 90.16015625 C274.48828125 93.09765625 274.48828125 93.09765625 272.56640625 94.76953125 C268.2239848 96.64316487 264.34730776 96.4210172 259.67578125 96.28515625 C258.35030273 96.26485352 258.35030273 96.26485352 256.99804688 96.24414062 C254.82786102 96.20894842 252.65799092 96.1551461 250.48828125 96.09765625 C250.38515625 96.92265625 250.28203125 97.74765625 250.17578125 98.59765625 C249.54250465 101.82160984 248.57653519 104.66791647 247.38037109 107.71875 C246.32743839 110.52657053 245.41629226 113.36482981 244.5078125 116.22265625 C240.18167243 129.74711319 235.82440359 142.78973774 228.34985352 154.94970703 C225.86283028 158.89381186 225.86283028 158.89381186 226.05078125 163.47265625 C227.26822132 166.40219058 227.26822132 166.40219058 230.48828125 167.09765625 C237.25845287 174.84812421 242.41560394 184.18360556 247.48828125 193.09765625 C248.03484375 194.05027344 248.58140625 195.00289062 249.14453125 195.984375 C252.53546784 202.30630732 254.94022292 208.88273071 257.23828125 215.66015625 C257.53234863 216.5227002 257.82641602 217.38524414 258.12939453 218.27392578 C261.48505709 228.53133321 262.84948875 238.38131731 262.86328125 249.16015625 C262.88777344 250.17142578 262.91226562 251.18269531 262.9375 252.22460938 C262.97233852 261.24197907 260.99113933 269.18320661 254.67578125 275.91015625 C253.73798828 276.94076172 253.73798828 276.94076172 252.78125 277.9921875 C247.65970015 282.6949394 242.4212068 285.97661528 235.86328125 288.28515625 C235.1374585 288.54071289 234.41163574 288.79626953 233.66381836 289.05957031 C225.28057841 291.7893678 216.77926923 292.33987118 208.03125 292.91650391 C204.19276193 293.18994459 200.37401924 293.6015357 196.55078125 294.03515625 C195.47546143 294.15443481 195.47546143 294.15443481 194.37841797 294.27612305 C187.41401599 295.06763725 180.47305811 296.03387596 173.53735352 297.04467773 C159.1834951 299.08406057 144.89808686 299.33639683 130.42578125 299.34765625 C129.40826782 299.34899567 128.39075439 299.35033508 127.34240723 299.35171509 C106.90001696 299.3458923 87.08058129 297.82622725 66.94555664 294.15087891 C61.20937425 293.12572308 55.48093594 292.62681186 49.67578125 292.16015625 C41.52236322 291.47326527 34.15567007 290.08980798 26.48828125 287.09765625 C25.24884766 286.63359375 25.24884766 286.63359375 23.984375 286.16015625 C19.28555418 284.25200566 15.57674557 281.78879872 11.625 278.63671875 C9.31813764 276.97510309 6.98564599 275.83032376 4.42578125 274.59765625 C-7.91555772 268.04883989 -21.6117642 254.97723825 -26.32421875 241.59765625 C-26.73942782 240.10290361 -27.13426934 238.60238745 -27.51171875 237.09765625 C-27.77597656 236.18757812 -28.04023437 235.2775 -28.3125 234.33984375 C-30.44748513 226.91292867 -31.63465133 219.88049203 -31.63769531 212.12426758 C-31.63956345 211.46642776 -31.64143158 210.80858795 -31.64335632 210.1308136 C-31.64733052 208.71604106 -31.64943239 207.30126222 -31.64981842 205.88648415 C-31.65415963 202.09285553 -31.68523851 198.29939232 -31.7109375 194.50585938 C-31.74135122 189.69306169 -31.76402867 184.88052992 -31.76220703 180.06762695 C-31.76142063 176.16240963 -31.78473678 172.25798288 -31.82408905 168.35297203 C-31.83454838 166.86866496 -31.83607346 165.38426668 -31.82843781 163.8999424 C-31.81882713 161.82670653 -31.83996376 159.7558794 -31.86816406 157.68286133 C-31.87180969 156.50484451 -31.87545532 155.3268277 -31.87921143 154.1131134 C-32.70401802 150.18087604 -34.23119658 149.27734064 -37.51171875 147.09765625 C-40.05110926 144.68213845 -42.35483593 142.29866237 -44.51171875 139.53515625 C-46.62751915 136.95652451 -48.88133937 135.13620027 -51.51171875 133.09765625 C-55.33506188 129.59292504 -56.38468293 127.62208613 -56.82421875 122.34765625 C-56.74089634 117.82324928 -55.54946262 114.48487508 -52.51171875 111.09765625 C-47.65103223 108.19993929 -43.06234367 107.16153895 -37.51171875 108.09765625 C-31.33500856 110.52422097 -28.39377251 114.46137067 -24.4453125 119.6875 C-22.7449409 121.80695308 -21.134269 123.42458723 -19.01171875 125.09765625 C-18.18671875 125.75765625 -17.36171875 126.41765625 -16.51171875 127.09765625 C-16.51171875 127.75765625 -16.51171875 128.41765625 -16.51171875 129.09765625 C-15.81046875 129.26265625 -15.10921875 129.42765625 -14.38671875 129.59765625 C-10.20739858 131.77817112 -7.74239235 134.97647042 -5.51171875 139.09765625 C-3.95849465 144.45680889 -3.25640779 149.13298942 -3.22460938 154.74780273 C-3.21777634 155.4660321 -3.2109433 156.18426147 -3.2039032 156.92425537 C-3.19041549 158.46884016 -3.18129826 160.01346832 -3.17619324 161.55810356 C-3.16782689 164.01032996 -3.14725209 166.46219752 -3.12365723 168.9143219 C-3.07567433 174.12121268 -3.04259134 179.32813956 -3.01171875 184.53515625 C-2.975907 190.57075935 -2.93380833 196.60618485 -2.8757782 202.64161873 C-2.855882 205.04385472 -2.84742612 207.44595065 -2.83947754 209.84825134 C-2.78762741 217.16434974 -2.53033648 224.00680818 -0.51171875 231.09765625 C0.14828125 231.09765625 0.80828125 231.09765625 1.48828125 231.09765625 C1.56304687 230.48921875 1.6378125 229.88078125 1.71484375 229.25390625 C4.66045448 209.61650141 14.9730464 188.80663946 27.40625 173.453125 C28.16844849 172.50977295 28.16844849 172.50977295 28.94604492 171.54736328 C29.95764599 170.30948513 30.98223277 169.08208267 32.02075195 167.86669922 C33.61246071 165.99429443 33.61246071 165.99429443 35.48828125 163.09765625 C35.0996788 160.12987386 33.8901525 157.61774518 32.59765625 154.9375 C32.21738281 154.14279297 31.83710938 153.34808594 31.4453125 152.52929688 C31.04699219 151.70623047 30.64867187 150.88316406 30.23828125 150.03515625 C28.64688652 146.72644835 27.06329207 143.4141961 25.48828125 140.09765625 C25.0708667 139.22399414 24.65345215 138.35033203 24.22338867 137.45019531 C21.0957275 130.76326414 18.59251274 123.98633741 16.30078125 116.97265625 C15.95853516 115.95300781 15.61628906 114.93335938 15.26367188 113.8828125 C13.31809087 107.99695772 11.71986326 102.17346083 10.48828125 96.09765625 C9.65635254 96.12907715 9.65635254 96.12907715 8.80761719 96.16113281 C6.28469102 96.24449173 3.76205476 96.29637493 1.23828125 96.34765625 C0.36558594 96.38117188 -0.50710937 96.4146875 -1.40625 96.44921875 C-7.8861404 96.54814837 -7.8861404 96.54814837 -11.09375 94.23828125 C-12.86894353 91.55837477 -13.06424235 90.25493399 -12.51171875 87.09765625 C-11.46484375 84.95703125 -11.46484375 84.95703125 -9.51171875 83.09765625 C-6.79942372 82.80123056 -4.51432143 82.71704436 -1.82421875 82.84765625 C-1.12232422 82.86570312 -0.42042969 82.88375 0.30273438 82.90234375 C2.03183561 82.94939412 3.7602333 83.02113752 5.48828125 83.09765625 C1.21587731 72.7758308 -3.06015154 62.44860884 -7.69921875 52.28515625 C-9.00487343 49.38907447 -10.05934201 46.50294588 -11.01171875 43.47265625 C-12.11106372 40.02606122 -13.59151152 37.14996056 -15.4609375 34.0390625 C-19.01878246 27.46564635 -21.61486412 20.57453042 -20.51171875 13.09765625 C-18.23586442 8.01429309 -15.19658722 4.17980656 -10.51171875 1.09765625 C-6.9424449 -0.0921017 -3.71224903 -0.0271253 0 0 Z " fill="#070707" transform="translate(101.51171875,157.90234375)"/>
<path d="M0 0 C2.87773835 1.27171125 5.59330601 2.24728216 8.6171875 3.078125 C13.2537564 4.38096254 17.5821455 6.19229377 21.984375 8.13671875 C27.05473673 10.16601318 32.24120994 11.81576061 37.4296875 13.515625 C39.43009103 14.18107986 41.43009783 14.8477286 43.4296875 15.515625 C44.4196875 15.845625 45.4096875 16.175625 46.4296875 16.515625 C55.4296875 19.515625 55.4296875 19.515625 58.39624023 20.50585938 C60.50664031 21.20836358 62.61822314 21.9073205 64.73071289 22.60351562 C66.33160767 23.13235352 66.33160767 23.13235352 67.96484375 23.671875 C69.41322632 24.14850586 69.41322632 24.14850586 70.89086914 24.63476562 C73.4296875 25.515625 73.4296875 25.515625 76.8671875 27.015625 C81.23974803 28.85670312 85.69888584 30.18224907 90.23828125 31.55078125 C97.70050883 33.80680354 105.02228764 36.4319244 112.359375 39.0625 C122.99050547 42.86576441 133.64002068 46.61661772 144.3671875 50.140625 C163.34652465 56.43246215 163.34652465 56.43246215 166.4296875 59.515625 C166.62398481 61.98806109 166.69291855 64.34840737 166.67451477 66.82173157 C166.67677934 67.58353688 166.67904392 68.34534219 166.68137711 69.13023251 C166.68669692 71.69668705 166.67782281 74.26290295 166.66918945 76.8293457 C166.6703017 78.66387001 166.67235852 80.49839396 166.67529297 82.33291626 C166.68002458 86.29059639 166.67888527 90.24821725 166.67351723 94.20589638 C166.66592862 100.46219308 166.67653922 106.71837472 166.6907196 112.97465515 C166.72851937 130.7675316 166.74664494 148.56035672 166.73510742 166.35327148 C166.72889564 176.1747113 166.74044958 185.99596626 166.77155274 195.81736058 C166.79023965 202.03813788 166.78685706 208.25839299 166.76738513 214.47916186 C166.7605117 218.34942167 166.77444449 222.21939727 166.79433441 226.08960342 C166.79938931 227.88550303 166.79587716 229.6814501 166.78320122 231.47731209 C166.76712929 233.92843344 166.78170237 236.37753747 166.8039093 238.8285675 C166.78585305 239.89608583 166.78585305 239.89608583 166.76743203 240.98517019 C166.83804556 244.80428187 167.3217592 246.38457319 169.78129864 249.37106609 C172.42412289 251.5787415 172.42412289 251.5787415 175.4296875 253.515625 C176.7109375 256.23828125 176.7109375 256.23828125 177.9296875 259.578125 C178.57164062 261.32996094 178.57164062 261.32996094 179.2265625 263.1171875 C179.62359375 264.23867188 180.020625 265.36015625 180.4296875 266.515625 C180.74421875 267.38960938 181.05875 268.26359375 181.3828125 269.1640625 C183.91337022 276.4332136 184.59155499 283.16583202 184.5546875 290.828125 C184.55855469 291.65119141 184.56242187 292.47425781 184.56640625 293.32226562 C184.55640354 299.38890896 184.55640354 299.38890896 183.4296875 300.515625 C181.96712573 300.6190375 180.49964486 300.65412821 179.03344727 300.66088867 C177.63178062 300.67045845 177.63178062 300.67045845 176.20179749 300.68022156 C174.67684914 300.68189079 174.67684914 300.68189079 173.12109375 300.68359375 C171.56551003 300.68858635 171.56551003 300.68858635 169.97850037 300.69367981 C167.78018641 300.6987536 165.58186473 300.701088 163.38354492 300.70092773 C160.01012549 300.70311338 156.63703333 300.72126214 153.26367188 300.74023438 C151.13281362 300.7431683 149.00195381 300.7451531 146.87109375 300.74609375 C145.85648575 300.75327927 144.84187775 300.76046478 143.79652405 300.76786804 C142.85892746 300.76479141 141.92133087 300.76171478 140.95532227 300.75854492 C140.12782974 300.75996994 139.30033722 300.76139496 138.44776917 300.76286316 C136.4296875 300.515625 136.4296875 300.515625 134.4296875 298.515625 C133.24292884 288.01974649 135.34769982 277.75206444 137.4296875 267.515625 C138.0896875 267.515625 138.7496875 267.515625 139.4296875 267.515625 C139.4709375 266.54625 139.5121875 265.576875 139.5546875 264.578125 C140.47284422 258.0312684 145.41234388 251.6370144 150.4296875 247.515625 C151.0896875 247.515625 151.7496875 247.515625 152.4296875 247.515625 C152.4296875 190.425625 152.4296875 133.335625 152.4296875 74.515625 C149.7896875 75.835625 147.1496875 77.155625 144.4296875 78.515625 C143.02901348 79.0397027 141.61419423 79.53035371 140.1796875 79.953125 C136.49934719 81.11433582 132.98153505 82.50563905 129.4296875 84.015625 C125.14578918 85.8336962 120.86867488 87.4224086 116.4375 88.8359375 C114.5856123 89.46284112 112.78413244 90.23368539 110.9921875 91.015625 C108.15437659 92.21049275 105.50076135 93.11333507 102.5546875 93.953125 C98.48435907 95.12927134 94.73847089 96.61198715 90.92578125 98.453125 C88.77119232 99.37025831 86.65767352 100.11687923 84.43359375 100.83984375 C78.51229518 102.77856308 72.73281258 105.06456112 66.9296875 107.328125 C58.58767033 110.56357751 50.23822048 113.73659493 41.76953125 116.6262207 C36.38800226 118.47328294 31.25172627 120.70582999 26.0546875 123.015625 C23.47289031 124.08395487 20.97772515 125.0264277 18.33203125 125.890625 C13.32396917 127.54365283 8.34418153 129.27158271 3.3671875 131.015625 C2.52091797 131.31082031 1.67464844 131.60601562 0.80273438 131.91015625 C-3.13769243 133.28945754 -7.05702177 134.69664658 -10.94921875 136.20703125 C-18.18933083 138.82346873 -22.83977945 137.67654252 -29.609375 134.71875 C-33.15757468 133.27700132 -36.78066754 132.1758794 -40.4453125 131.078125 C-46.44895142 129.25830715 -52.20487694 127.13025413 -57.96875 124.63671875 C-60.8165008 123.40953485 -63.69453782 122.31946174 -66.60546875 121.25390625 C-68.80153606 120.42874378 -70.96385747 119.53456213 -73.1328125 118.640625 C-77.7568824 116.77980413 -82.44873022 115.20627036 -87.18432617 113.6550293 C-93.1411178 111.68811543 -99.04641207 109.58685398 -104.9453125 107.453125 C-105.86022461 107.12473633 -106.77513672 106.79634766 -107.71777344 106.45800781 C-112.78077951 104.61708188 -117.71700881 102.61452566 -122.62255859 100.38842773 C-124.94672899 99.34695003 -127.29781883 98.43663346 -129.6953125 97.578125 C-130.61441406 97.248125 -131.53351563 96.918125 -132.48046875 96.578125 C-135.37001119 95.58450232 -138.27345922 94.64327312 -141.18237305 93.70825195 C-147.14492972 91.78193342 -152.70092706 89.57886504 -158.24609375 86.63671875 C-161.42892427 85.10147109 -164.68935188 84.19798828 -168.0859375 83.25390625 C-171.41894343 82.26343751 -174.57784327 80.947246 -177.7890625 79.62109375 C-182.23161495 77.85530394 -186.75488605 76.32072123 -191.2734375 74.76171875 C-201.27322871 70.98217681 -201.27322871 70.98217681 -203.5703125 66.515625 C-203.97584734 63.2713463 -203.94130444 61.27943194 -202.5078125 58.328125 C-197.78808132 53.91289261 -190.79742849 52.65653557 -184.6953125 51.078125 C-179.14591687 49.59452361 -173.95108691 48.01512116 -168.77734375 45.484375 C-164.83672935 43.75468939 -160.67902724 42.67061599 -156.55859375 41.44921875 C-153.45190417 40.53790749 -153.45190417 40.53790749 -150.1328125 39.015625 C-145.64633956 37.12658376 -141.06339721 35.92517916 -136.36328125 34.67578125 C-133.43200157 33.77919004 -130.70674895 32.79682679 -127.87890625 31.640625 C-122.15487231 29.30185992 -116.32134828 27.37115177 -110.4453125 25.453125 C-108.37972868 24.77620146 -106.3146139 24.09784479 -104.25 23.41796875 C-103.35007324 23.12398193 -102.45014648 22.82999512 -101.52294922 22.52709961 C-99.24980741 21.74839724 -97.005151 20.93574738 -94.75830078 20.08666992 C-90.49183674 18.47442422 -86.19260306 16.96842079 -81.8828125 15.4765625 C-80.20886393 14.89415524 -78.53495595 14.31163131 -76.86108398 13.72900391 C-74.19552764 12.80230476 -71.52965726 11.87654179 -68.86306763 10.95281982 C-59.14585818 7.58473335 -49.49307986 4.1541846 -39.95092773 0.31518555 C-25.29792497 -5.53264492 -14.59584628 -6.58644794 0 0 Z " fill="#040403" transform="translate(251.5703125,20.484375)"/>
<path d="M0 0 C1.15518918 0.90484792 2.29885406 1.8244206 3.4375 2.75 C4.39462891 3.51570313 4.39462891 3.51570313 5.37109375 4.296875 C7.20761836 6.21707819 7.46486519 7.45275832 8 10 C9.84971696 11.05021103 9.84971696 11.05021103 12 12 C13.35432675 13.31200404 14.68733482 14.64631404 16 16 C16.7425 16.53625 17.485 17.0725 18.25 17.625 C18.8275 18.07875 19.405 18.5325 20 19 C20 19.66 20 20.32 20 21 C20.74121094 21.26167969 21.48242188 21.52335937 22.24609375 21.79296875 C25.02537759 23.01112295 26.78518878 24.33356481 29.0625 26.3125 C34.25165781 30.47941971 39.82545246 32.65732964 46 35 C47.134375 35.515625 48.26875 36.03125 49.4375 36.5625 C54.84104176 38.7428765 60.4067585 40.37686325 66 42 C66.58531494 42.17797119 67.17062988 42.35594238 67.77368164 42.53930664 C82.76652647 45.64178478 102.7336939 44.27480032 117 39 C117.64308105 38.76974121 118.28616211 38.53948242 118.94873047 38.30224609 C132.92640378 33.25484699 155.0329135 23.934173 162 10 C162.66 10 163.32 10 164 10 C164.33 9.01 164.66 8.02 165 7 C165.66 7 166.32 7 167 7 C167.28875 6.401875 167.5775 5.80375 167.875 5.1875 C169 3 169 3 171 0 C172.70703125 0.0859375 172.70703125 0.0859375 175 1 C176.73120387 3.18269227 178.21192839 5.27916723 179.6875 7.625 C180.12030273 8.29797119 180.55310547 8.97094238 180.99902344 9.66430664 C181.89990685 11.07353633 182.79452208 12.48679102 183.68310547 13.90380859 C184.91876164 15.87068732 186.17789627 17.82048347 187.44140625 19.76953125 C196.24127861 33.58897142 200.66769928 48.05622269 204 64 C204.19078125 64.82757813 204.3815625 65.65515625 204.578125 66.5078125 C205.95324752 74.63122149 206.55508876 83.45057164 202.3125 90.75 C196.43178435 98.90404785 187.74319677 103.17263903 178 105.3125 C172.7512477 106.09487552 167.48639855 106.27142694 162.1875 106.375 C161.37474609 106.40118408 160.56199219 106.42736816 159.72460938 106.4543457 C153.41633071 106.47189759 149.99178384 104.73962894 145.28515625 100.4296875 C142.45610679 96.83236583 141.68265973 94.4180633 142.0625 89.8125 C142.66862231 85.48791948 143.51949062 82.26039291 146.91796875 79.3671875 C147.66691406 78.87476563 148.41585937 78.38234375 149.1875 77.875 C149.92355469 77.37742187 150.65960938 76.87984375 151.41796875 76.3671875 C157.3559945 73.22299838 163.61191025 72.56090711 170.1875 71.9375 C171.76457415 71.78248296 173.3414097 71.62501474 174.91796875 71.46484375 C175.95087036 71.36610962 175.95087036 71.36610962 177.00463867 71.26538086 C179.07929957 70.98945324 181.0043674 70.63527771 183 70 C185.08858407 67.07598231 185.37223878 64.53626841 185 61 C182.53500876 58.53500876 181.8384942 58.70307707 178.4375 58.6875 C167.37419213 58.90528165 149.48507099 60.22562172 141.00390625 67.77734375 C139.37489173 69.62907659 139.37489173 69.62907659 138.0859375 71.51171875 C137 73 137 73 135 74 C130.86867015 80.70366731 128.91176604 88.70835853 130.51171875 96.48828125 C131.90255329 100.86683443 133.82187118 104.95490362 136 109 C125.12259875 112.02150035 114.43282068 112.15191303 103.19140625 112.1328125 C101.77473433 112.13348812 100.35806252 112.13446029 98.94139099 112.13571167 C95.98720179 112.13717697 93.03304305 112.13507225 90.07885742 112.13037109 C86.32260233 112.1246798 82.56641882 112.1279565 78.81016636 112.13394356 C75.88880388 112.13758537 72.96745791 112.136394 70.04609489 112.13381577 C68.66243417 112.1331562 67.27877187 112.13394031 65.89511299 112.13629532 C57.87084738 112.14695861 49.97616577 111.90780156 42 111 C42.3086499 110.38737305 42.6172998 109.77474609 42.93530273 109.14355469 C47.97796449 98.99116529 50.263218 91.49454606 46.87890625 80.4765625 C44.57266478 73.97808655 40.5841071 69.11004647 34.64453125 65.61328125 C24.12367004 60.67188945 7.71267463 56.95464566 -4 59 C-6.26521103 60.79285083 -6.91203803 61.57118539 -7.5 64.4375 C-7.19551103 67.114014 -7.19551103 67.114014 -5.234375 69.0703125 C0.46240602 72.46911664 7.05984399 72.19513832 13.56640625 72.68945312 C22.0627089 73.48820733 28.4369963 75.4369963 34.5625 81.5625 C36.71996734 86.72166103 36.86841488 91.49500478 36 97 C33.80725496 101.78671578 29.76437434 104.13982715 25 106 C21.30575834 106.43524964 17.65354108 106.42703781 13.9375 106.375 C12.91124512 106.36557373 11.88499023 106.35614746 10.82763672 106.34643555 C-3.48918567 106.06245243 -15.51469994 102.92544138 -26.26953125 93.0078125 C-31.05004572 87.46112077 -32.60061793 80.86725259 -32.25390625 73.67578125 C-29.68637969 46.61800136 -18.13246441 20.29109112 0 0 Z " fill="#FBFBFA" transform="translate(146,331)"/>
<path d="M0 0 C0.89565674 0.34861084 1.79131348 0.69722168 2.71411133 1.05639648 C4.47404419 1.73810913 4.47404419 1.73810913 6.26953125 2.43359375 C7.43331299 2.88532959 8.59709473 3.33706543 9.79614258 3.80249023 C13.15743772 5.05884569 16.5486369 6.02319912 20 7 C22.35701062 7.89938563 24.68872183 8.85284156 27.0234375 9.80859375 C30.51386221 11.20567975 34.03635244 12.50925636 37.5625 13.8125 C43.27143029 15.92518981 48.89318602 18.19330589 54.5 20.5625 C60.67832147 23.16274409 66.8870543 25.30489274 73.30786133 27.22021484 C79.40220007 29.05912262 85.17373551 31.45714337 91 34 C97.31101748 36.74601524 102.56265517 37.15000959 109.17578125 34.9375 C110.97155196 34.20241255 112.76692458 33.46585378 114.54956055 32.69946289 C120.49915491 30.14209752 126.55787381 28.02229282 132.6875 25.9375 C139.73240456 23.52457328 146.6519114 21.02135641 153.48828125 18.06640625 C156.82044034 16.65166374 160.21224651 15.44614207 163.62109375 14.23046875 C168.26722823 12.53852382 172.88181131 10.76654891 177.5 9 C190.68198929 3.97205733 190.68198929 3.97205733 194.625 2.5 C195.42164063 2.2009375 196.21828125 1.901875 197.0390625 1.59375 C199 1 199 1 202 1 C202.0999677 5.23170951 202.17197673 9.4627671 202.21972656 13.6953125 C202.23966189 15.13065587 202.26682074 16.56591997 202.30175781 18.00097656 C202.60908404 30.96291219 200.21348105 40.66417243 192 51 C189.375 53.3125 189.375 53.3125 187 55 C186.0409375 56.0209375 186.0409375 56.0209375 185.0625 57.0625 C182.24967403 59.70485167 178.96646327 62 175 62 C175 62.66 175 63.32 175 64 C130.00460738 81.813581 78.59926668 85.65951949 33 67 C23.46776119 62.83595214 15.1924851 57.63088419 8 50 C7.33355469 49.33355469 6.66710937 48.66710937 5.98046875 47.98046875 C-0.68375434 37.95127305 -0.51598379 27.2901833 -0.25 15.75 C-0.22988201 14.21486734 -0.2116407 12.6797089 -0.1953125 11.14453125 C-0.15178757 7.42914057 -0.08306097 3.71474224 0 0 Z " fill="#050504" transform="translate(132,126)"/>
<path d="M0 0 C3.5786304 1.65167557 6.74820188 3.78286492 10 6 C9.63212928 13.23479087 9.63212928 13.23479087 6.625 16.875 C2.14976636 20.49780819 0.03918772 21.23839976 -5.6875 21.125 C-6.86699219 21.10695313 -8.04648438 21.08890625 -9.26171875 21.0703125 C-10.16535156 21.04710937 -11.06898438 21.02390625 -12 21 C-12.35185318 26.86061778 -12.35185318 26.86061778 -10 32 C-3.98710945 33.69285995 2.57110242 33.6648676 8.30859375 31.1015625 C11.22977821 29.19908209 12.98862048 26.82850245 15 24 C17.04119788 25.61594832 19.04072937 27.2856382 21 29 C21 29.66 21 30.32 21 31 C28.93621422 33.22770925 35.11977768 33.57313382 43 31 C43.33 28.03 43.66 25.06 44 22 C41.2858544 20.6429272 39.27092674 21.08467565 36.25 21.25 C29.51816684 21.31457394 29.51816684 21.31457394 26.375 18.75 C22.22751218 13.94764569 21.75309463 11.41953968 22 5 C23.4540625 4.5978125 23.4540625 4.5978125 24.9375 4.1875 C25.948125 3.795625 26.95875 3.40375 28 3 C28.33 2.01 28.66 1.02 29 0 C29.47308594 0.36351562 29.94617188 0.72703125 30.43359375 1.1015625 C32.60798464 2.7546082 34.79996337 4.38124395 37 6 C37.70898438 6.5259375 38.41796875 7.051875 39.1484375 7.59375 C52.08898754 16.75024028 66.54289647 18.39649933 82 17 C90.44308581 15.46362664 98.54158459 12.19535867 106 8 C102.76426312 16.44633664 98.37404579 23.9637975 92.61328125 30.9296875 C90.93697892 32.97288439 90.93697892 32.97288439 89.68359375 35.35546875 C87.45710887 38.85275474 84.70581317 41.55055362 81.75 44.4375 C81.16806885 45.01008545 80.5861377 45.5826709 79.98657227 46.17260742 C78.33261502 47.79053376 76.6692644 49.39788688 75 51 C74.25105469 51.71929687 73.50210938 52.43859375 72.73046875 53.1796875 C69.51331347 56.10947161 68.51038977 57 64 57 C64 57.66 64 58.32 64 59 C53.90082078 64.64312185 44.11850478 68.77345351 33 72 C32.40477539 72.17869629 31.80955078 72.35739258 31.19628906 72.54150391 C26.06473756 73.61276377 20.65783395 73.22850609 15.4375 73.25 C14.21224609 73.270625 12.98699219 73.29125 11.72460938 73.3125 C3.98005999 73.3455082 -2.67707318 72.52759803 -10 70 C-10.69182373 69.76490723 -11.38364746 69.52981445 -12.09643555 69.28759766 C-24.64775817 64.79913031 -34.78999539 58.50537775 -45 50 C-45.56589844 49.55785156 -46.13179687 49.11570312 -46.71484375 48.66015625 C-59.77113365 38.37443185 -69.82843656 22.17176013 -76 7 C-75.01 7.33 -74.02 7.66 -73 8 C-73 8.66 -73 9.32 -73 10 C-71.33639281 10.67426504 -69.66880069 11.33869335 -68 12 C-66.39125 12.63808594 -66.39125 12.63808594 -64.75 13.2890625 C-48.0026415 19.25530897 -31.27655983 19.01448274 -14.88867188 11.90283203 C-8.81863752 9.00120496 -3.85497321 5.53472643 0 0 Z " fill="#FAFAFA" transform="translate(217,289)"/>
<path d="M0 0 C7.07216446 5.56984051 12.66611552 13.19651986 14.17578125 22.23828125 C14.21149121 29.13030261 11.32120272 36.25275733 6.5703125 41.17578125 C-3.13355255 50.27559044 -13.13277606 53.0899853 -26.1484375 52.83203125 C-35.99720726 52.34854619 -43.32942524 48.17513224 -49.8984375 40.94921875 C-54.93529023 34.50410311 -57.7120636 28.53834014 -57.30078125 20.2421875 C-56.01739692 13.03470109 -52.331587 7.230646 -46.8125 2.5 C-46.33425781 1.99726563 -45.85601562 1.49453125 -45.36328125 0.9765625 C-33.78494294 -10.51767166 -12.6596184 -8.46286819 0 0 Z " fill="#F9F9F9" transform="translate(196.8125,233.5)"/>
<path d="M0 0 C4.03996658 3.03493398 7.65405383 6.17345905 10.44921875 10.41796875 C11.00416016 11.25908203 11.00416016 11.25908203 11.5703125 12.1171875 C15.24773511 18.39043784 15.29920951 24.48983084 14.08203125 31.546875 C11.70816967 39.59524132 4.84154035 46.36906069 -2.30078125 50.41796875 C-3.69910031 51.12230724 -5.11660215 51.78986112 -6.55078125 52.41796875 C-7.29199219 52.78277344 -8.03320312 53.14757812 -8.796875 53.5234375 C-12.48429763 54.72119606 -16.02674264 54.75898385 -19.86328125 54.73046875 C-20.62294189 54.7262793 -21.38260254 54.72208984 -22.1652832 54.71777344 C-30.34350367 54.55229013 -35.89825303 52.37197913 -42.55078125 47.41796875 C-43.12828125 47.00933594 -43.70578125 46.60070312 -44.30078125 46.1796875 C-49.47109924 42.22394852 -52.59017406 37.6396289 -54.55078125 31.41796875 C-55.42663653 24.79483454 -55.31225284 19.12983301 -51.55078125 13.41796875 C-51.03515625 12.46921875 -50.51953125 11.52046875 -49.98828125 10.54296875 C-49.51390625 9.84171875 -49.03953125 9.14046875 -48.55078125 8.41796875 C-47.89078125 8.41796875 -47.23078125 8.41796875 -46.55078125 8.41796875 C-46.22078125 7.42796875 -45.89078125 6.43796875 -45.55078125 5.41796875 C-34.36805626 -6.26943979 -13.78633081 -8.55048082 0 0 Z " fill="#F9F9F9" transform="translate(309.55078125,231.58203125)"/>
<path d="M0 0 C3.33600367 2.05838525 4.8262176 3.7393264 7 7 C7.47364652 11.81540624 7.49199653 14.05114955 5.25 18.375 C2.64793829 21.41073866 0.75769559 22.70128608 -3.18359375 23.37109375 C-7.46778521 23.49731776 -9.3954761 23.45017737 -12.9375 20.8125 C-15.70693477 17.03599804 -17.10888905 14.74222482 -16.8125 10 C-15.77371162 6.16447366 -14.6728167 3.02227687 -11.171875 0.8828125 C-7.48545977 -0.61562247 -3.9067648 -0.57903835 0 0 Z " fill="#080807" transform="translate(185,238)"/>
<path d="M0 0 C4.61793297 0.08127562 7.31987515 1.23240705 10.62109375 4.45703125 C13.02578912 8.25510151 12.66304319 12.14624662 11.875 16.4375 C10.23595437 20.37120951 8.74464631 21.83386279 4.875 23.4375 C0.38129001 24.12884 -3.08863635 24.03285784 -7.0625 21.75 C-9.74617548 18.74103053 -11.05007613 16.60588489 -11.19140625 12.515625 C-10.9356506 8.39253385 -10.38649056 6.74475141 -7.625 3.5 C-6.8 2.819375 -5.975 2.13875 -5.125 1.4375 C-3.58528172 -0.10221828 -2.14014329 0.11970293 0 0 Z " fill="#080808" transform="translate(283.125,237.5625)"/>
<path d="M0 0 C-0.2265625 2.36889648 -0.2265625 2.36889648 -1 5 C-2.8984375 6.23852539 -2.8984375 6.23852539 -5.375 7.09765625 C-6.73044922 7.58782227 -6.73044922 7.58782227 -8.11328125 8.08789062 C-9.06589844 8.40951172 -10.01851563 8.73113281 -11 9.0625 C-12.85503457 9.71759962 -14.70921104 10.37513444 -16.5625 11.03515625 C-17.47733154 11.35750244 -18.39216309 11.67984863 -19.3347168 12.01196289 C-22.59581504 13.22087235 -25.74170359 14.62230115 -28.90478516 16.06469727 C-32.11405417 17.49731316 -35.39049969 18.72369989 -38.6875 19.9375 C-39.36377441 20.18838379 -40.04004883 20.43926758 -40.73681641 20.69775391 C-42.82304015 21.46933095 -44.91120952 22.23540165 -47 23 C-47.67981934 23.24991699 -48.35963867 23.49983398 -49.06005859 23.75732422 C-50.9967801 24.46769019 -52.93536996 25.1726192 -54.875 25.875 C-56.00679688 26.28492188 -57.13859375 26.69484375 -58.3046875 27.1171875 C-61 28 -61 28 -63 28 C-63.33 26.35 -63.66 24.7 -64 23 C-59.66819125 21.32934815 -55.33450325 19.66364749 -51 18 C-50.26652344 17.71640625 -49.53304688 17.4328125 -48.77734375 17.140625 C-44.90697941 15.66150487 -41.00339579 14.34304296 -37.0625 13.0625 C-33.54938221 11.90456938 -30.1633371 10.69002276 -26.8125 9.125 C-21.60432598 6.70416356 -16.18559851 4.89144283 -10.76293945 3.01806641 C-2.03259668 0 -2.03259668 0 0 0 Z " fill="#EBEAEA" transform="translate(318,128)"/>
<path d="M0 0 C0.99 0 1.98 0 3 0 C3.14695313 1.03447266 3.14695313 1.03447266 3.296875 2.08984375 C4.22312956 7.91087459 5.5402164 12.85356833 8.1953125 18.125 C9 20 9 20 9 23 C4.05 23 -0.9 23 -6 23 C-5.54625 21.5975 -5.0925 20.195 -4.625 18.75 C-3.08540961 13.67370904 -2.19120721 8.61489172 -1.4296875 3.37109375 C-1 1 -1 1 0 0 Z " fill="#F1F1F0" transform="translate(231,258)"/>
<path d="M0 0 C4.95 0 9.9 0 15 0 C15 1.32 15 2.64 15 4 C10.05 4 5.1 4 0 4 C0 2.68 0 1.36 0 0 Z " fill="#5BD34B" transform="translate(441,456)"/>
<path d="M0 0 C2.31 0 4.62 0 7 0 C7 1.32 7 2.64 7 4 C4.69 4 2.38 4 0 4 C0 2.68 0 1.36 0 0 Z " fill="#FF6E3C" transform="translate(449,456)"/>
<path d="M0 0 C2.31 0 4.62 0 7 0 C7 1.32 7 2.64 7 4 C4.69 4 2.38 4 0 4 C0 2.68 0 1.36 0 0 Z " fill="#42FFFF" transform="translate(434,456)"/>
<path d="M0 0 C2.31 0 4.62 0 7 0 C7 1.32 7 2.64 7 4 C4.69 4 2.38 4 0 4 C0 2.68 0 1.36 0 0 Z " fill="#FFFF66" transform="translate(427,456)"/>
<path d="M0 0 C-0.33 1.65 -0.66 3.3 -1 5 C-1.99 5.33 -2.98 5.66 -4 6 C-4.33 4.35 -4.66 2.7 -5 1 C-3 0 -3 0 0 0 Z " fill="#CFCFCE" transform="translate(318,128)"/>
<path d="M0 0 C1.32 0 2.64 0 4 0 C4 1.65 4 3.3 4 5 C2.68 5 1.36 5 0 5 C0 3.35 0 1.7 0 0 Z " fill="#4F58FE" transform="translate(456,455)"/>
</svg>
